<svg xmlns="http://www.w3.org/2000/svg" viewBox="0 0 39.9 38.91"><title>Asset 4</title><g id="Layer_2" data-name="Layer 2"><g id="Layer_1-2" data-name="Layer 1"><path d="M20,0a20,20,0,0,0-6.31,38.88c1,.18,1.36-.44,1.36-1s0-2.05,0-3.72c-5.55,1.21-6.72-2.35-6.72-2.35A5.33,5.33,0,0,0,6,28.93c-1.81-1.23.14-1.21.14-1.21a4.21,4.21,0,0,1,3.06,2.06c1.78,3,4.67,2.16,5.8,1.65a4.26,4.26,0,0,1,1.27-2.66c-4.43-.51-9.09-2.22-9.09-9.86a7.72,7.72,0,0,1,2.05-5.35,7.22,7.22,0,0,1,.2-5.29s1.67-.53,5.49,2.05a18.83,18.83,0,0,1,5-.67,19.31,19.31,0,0,1,5,.67c3.81-2.58,5.48-2,5.48-2a7.09,7.09,0,0,1,.2,5.28,7.67,7.67,0,0,1,2.05,5.35c0,7.66-4.66,9.35-9.11,9.84a4.77,4.77,0,0,1,1.36,3.7c0,2.66,0,4.81,0,5.47s.36,1.15,1.38,1A20,20,0,0,0,20,0Z"/></g></g></svg>