<svg xmlns="http://www.w3.org/2000/svg" viewBox="0 0 39.67 39.67"><defs><style>.cls-1{fill:#231f20;}</style></defs><title>Asset 2</title><g id="Layer_2" data-name="Layer 2"><g id="Layer_1-2" data-name="Layer 1"><rect class="cls-1" x="17.51" y="17.52" width="4.6" height="4.51" transform="translate(-5.27 7.35) rotate(-18.6)"/><path class="cls-1" d="M19.83,0A19.84,19.84,0,1,0,39.67,19.83,19.83,19.83,0,0,0,19.83,0ZM29.9,23l-2.12.72.73,2.17a2,2,0,0,1-3.79,1.27L24,25l-4.36,1.47.73,2.2a2,2,0,1,1-3.79,1.27l-.73-2.19-2,.68a2,2,0,0,1-1.27-3.79l2-.68-1.44-4.28-2.08.7a2,2,0,1,1-1.27-3.79l2.08-.7-.69-2A2,2,0,0,1,15,12.54l.69,2L20,13.11,19.3,11a2,2,0,0,1,3.79-1.27l.7,2.06,2.07-.69a2,2,0,1,1,1.27,3.79l-2.07.69L26.5,19.9l2.13-.72A2,2,0,1,1,29.9,23Z"/></g></g></svg>