<svg xmlns="http://www.w3.org/2000/svg" viewBox="0 0 39.84 39.84"><title>Asset 3</title><g id="Layer_2" data-name="Layer 2"><g id="Layer_1-2" data-name="Layer 1"><path d="M19.92,0A19.92,19.92,0,1,0,39.84,19.92,19.92,19.92,0,0,0,19.92,0ZM30,15.91c0,.21,0,.43,0,.65a14.27,14.27,0,0,1-22,12,9.44,9.44,0,0,0,1.2.07,10.08,10.08,0,0,0,6.23-2.14A5.06,5.06,0,0,1,10.73,23a5,5,0,0,0,.95.09A4.78,4.78,0,0,0,13,22.93,5,5,0,0,1,9,18V18a5,5,0,0,0,2.28.62,5,5,0,0,1-1.56-6.7A14.22,14.22,0,0,0,20,17.11,5.31,5.31,0,0,1,19.91,16a5,5,0,0,1,8.69-3.43,10.35,10.35,0,0,0,3.19-1.22,5,5,0,0,1-2.21,2.77,9.91,9.91,0,0,0,2.88-.79A10.17,10.17,0,0,1,30,15.91Z"/></g></g></svg>